<svg width="50" height="50" viewBox="0 0 50 50" fill="none" xmlns="http://www.w3.org/2000/svg">
<rect width="50" height="50" rx="5" fill="#263238"/>
<path d="M20.4319 41.4C19.6585 41.4 18.8052 41.3333 17.8719 41.2C16.9652 41.0933 16.2185 40.96 15.6319 40.8V37.84C16.7519 38.1867 17.9519 38.36 19.2319 38.36C21.0985 38.36 22.7119 38.0533 24.0719 37.44C25.4585 36.8267 26.5119 36 27.2319 34.96C27.9519 33.92 28.3119 32.7733 28.3119 31.52C28.3119 29.8133 27.8052 28.4933 26.7919 27.56C25.7785 26.6267 24.2719 26.1333 22.2719 26.08L19.8719 26.68L19.0319 24.24C20.1252 24.0533 21.2052 23.72 22.2719 23.24C23.8185 22.5467 25.0185 21.68 25.8719 20.64C26.7252 19.5733 27.1519 18.44 27.1519 17.24C27.1519 15.9067 26.7385 14.9333 25.9119 14.32C25.1119 13.7067 24.0852 13.4 22.8319 13.4C21.6585 13.4 20.5519 13.6 19.5119 14C18.4985 14.4 17.6319 14.8933 16.9119 15.48L15.5119 13.04C16.2852 12.2933 17.5385 11.56 19.2719 10.84C21.0319 10.12 22.8185 9.76 24.6319 9.76C27.1652 9.76 29.2185 10.3067 30.7919 11.4C32.3919 12.4667 33.1919 14.0933 33.1919 16.28C33.1919 18.2 32.4452 19.8933 30.9519 21.36C29.4585 22.8267 27.6319 23.9467 25.4719 24.72C25.7385 24.6933 26.1385 24.68 26.6719 24.68C29.0452 24.68 30.9652 25.28 32.4319 26.48C33.9252 27.68 34.6719 29.28 34.6719 31.28C34.6985 33.2 34.1252 34.92 32.9519 36.44C31.8052 37.9867 30.1519 39.2 27.9919 40.08C25.8319 40.96 23.3119 41.4 20.4319 41.4Z" fill="#92E3A9"/>
</svg>